<svg xmlns="http://www.w3.org/2000/svg" width="16" height="16" fill="#000" version="1.2" viewBox="0 0 1582 1263"><path fill-rule="evenodd" d="m.7 1070.6 11.4-1.9c35.6-6 88.5-21.9 124.5-37.2 114.3-48.9 215.9-139.2 300.6-267.3 22.9-34.8 46-87.4 62.7-143.4 41.4-138.7 64.6-340 64.8-558.8V.1h96.5L660 146.9c-2.3 321.9-11.1 457-37.3 573.2C600.8 818.2 557.4 912 501.4 982c-18.6 23.1-72.7 77.7-98.3 98.7C303.4 1163 193 1220.6 82 1248.4c-24.7 6.3-66.8 13.7-76.9 13.7H.7zM699.3.1h183.5v1262H699.3zm853.6 1259.2c-176-26.7-377.8-149.8-487.5-297-46.5-62.4-86.8-154.4-106.7-243.7-26.3-118.4-37-295.4-37.1-617.2V.1h95.9v68.6c0 312.7 46.8 570.5 125.6 693.2 45.6 70.9 108 140.9 169.4 190.1 73.4 58.7 166.9 101.1 257.7 116.7l11.2 1.9v191.5l-6.3-.2c-3.3-.1-13.4-1.3-22.2-2.6z"/></svg>