<svg xmlns="http://www.w3.org/2000/svg" width="16" height="16" viewBox="0 0 24 24" fill="#000"><path d="m2.75 24 10.632-.01a7.867 7.867 0 0 0 7.868-7.869 7.868 7.868 0 0 0-7.867-7.869l-2.76.016a.399.399 0 0 1 0-.798h10.598l.006-3.33v-.001H10.612a3.723 3.723 0 1 0 .004 7.446l2.771.03a4.504 4.504 0 0 1 4.505 4.506 4.504 4.504 0 0 1-4.503 4.504H2.755L2.75 24z"/><path d="M13.368 16.512H2.761l.004 3.331 10.65-.003a3.722 3.722 0 0 0 0-7.443l-2.774-.03c-2.491 0-4.514-2.016-4.514-4.504s2.01-4.507 4.499-4.507l10.602-.003-.006-3.35L10.624 0a7.867 7.867 0 0 0-7.866 7.869 7.869 7.869 0 0 0 7.866 7.871h2.744c.211 0 .384.172.384.385a.389.389 0 0 1-.384.387z"/></svg>