<svg xmlns="http://www.w3.org/2000/svg" width="32" height="32" viewBox="0 0 48 48"><circle cx="24" cy="24" r="20" fill="#ffcb00"/><circle cx="24" cy="24" r="16"/><path fill="#fff" d="m21.205 36.356 3.128-3.128-6.023-6.023c-.254-.254-.528-.57-.677-.93-.338-.718-.486-1.838.338-2.663 1.015-1.014 2.367-.591 3.677.719l5.79 5.79 3.128-3.127-6.044-6.045c-.254-.253-.55-.634-.698-.95-.402-.825-.38-1.86.36-2.6 1.034-1.035 2.387-.655 3.887.845l5.622 5.622 3.127-3.128-6.086-6.086c-3.085-3.085-5.98-2.98-7.967-.994-.76.761-1.226 1.565-1.458 2.473a6.154 6.154 0 0 0-.084 2.578l-.042.041c-1.522-.633-3.255-.254-4.586 1.078-1.775 1.775-1.712 3.656-1.501 4.755l-.064.063L13.49 23.4l-2.704 2.705a97.484 97.484 0 0 1 3.381 3.211l7.04 7.04z"/></svg>